<svg xmlns="http://www.w3.org/2000/svg" xmlns:xlink="http://www.w3.org/1999/xlink" viewBox="0 0 1921 7394">
  <defs>
    <style>
      .cls-1 {
        fill: none;
      }

      .cls-2 {
        fill: #f07382;
      }

      .cls-2, .cls-5 {
        <!-- stroke: #000; -->
        stroke-miterlimit: 10;
      }

      .cls-3 {
        clip-path: url(#clip-path);
      }

      .cls-4 {
        clip-path: url(#clip-path-2);
      }

      .cls-5 {
        font-size: 165.66px;
        stroke-width: 0.25px;
        font-family: Domine-SemiBold, Domine;
        font-weight: 600;
        letter-spacing: -0.03em;
      }

      .cls-18, .cls-5, .cls-7 {
        fill: #ebebeb;
      }

      .cls-6 {
        letter-spacing: 0em;
      }

      .cls-7 {
        font-size: 51.94px;
        font-family: Roboto-Light, Roboto;
        font-weight: 300;
      }

      .cls-8 {
        letter-spacing: -0.01em;
      }

      .cls-9 {
        letter-spacing: 0em;
      }

      .cls-10 {
        letter-spacing: -0.01em;
      }

      .cls-11 {
        letter-spacing: 0em;
      }

      .cls-12 {
        letter-spacing: -0.01em;
      }

      .cls-13 {
        letter-spacing: -0.01em;
      }

      .cls-14 {
        letter-spacing: -0.01em;
      }

      .cls-15 {
        letter-spacing: -0.02em;
      }

      .cls-16 {
        letter-spacing: -0.01em;
      }

      .cls-17 {
        fill: #a15058;
      }
    </style>
    <clipPath id="clip-path" transform="translate(2 0)">
      <rect class="cls-1" x="926" y="446.5" width="878.02" height="853.5"/>
    </clipPath>
    <clipPath id="clip-path-2" transform="translate(2 0)">
      <rect class="cls-1" x="1148.5" y="1413" width="773.15" height="538"/>
    </clipPath>
  </defs>
  <g id="photos">
    <rect class="cls-2" x="1.5" y="0.5" width="1921" height="7393"/>
    <image width="5472" height="3648" transform="translate(2 873) scale(0.15)" xlink:href="images/IMG_0725.JPG"/>
    <image width="5472" height="3648" transform="translate(2 333) scale(0.15)" xlink:href="images/Shibuya%20crossing%20anime%20style%202.jpg"/>
    <g class="cls-3">
      <image width="4500" height="4509" transform="translate(927.6 433.45) scale(0.2)" xlink:href="images/Alex%20paper%20cutout%202.jpg"/>
    </g>
    <image width="5472" height="3648" transform="translate(1150 1969) scale(0.14 0.14)" xlink:href="images/IMG_6375%20(1).JPG"/>
    <g class="cls-4">
      <image width="5415" height="3610" transform="translate(1122.3 1412.59) scale(0.15 0.15)" xlink:href="images/Book%20of%20Mormon%20picture%203.jpg"/>
    </g>
    <image width="2000" height="1333" transform="translate(6.21 1413) scale(0.57)" xlink:href="images/Girl%20dancing%20in%20sunset%204.jpg"/>
    <image width="9601" height="5401" transform="translate(0 2496) scale(0.2)" xlink:href="images/chiko%20pattern%204.jpg"/>
    <image width="5472" height="3648" transform="translate(2 4975) scale(0.13 0.13)" xlink:href="images/IMG_6732.JPG"/>
    <image width="5472" height="3648" transform="translate(994 3856) scale(0.17)" xlink:href="images/IMG_6880.JPG"/>
    <image width="4448" height="3433" transform="translate(2 3575) scale(0.22)" xlink:href="images/Tonkatsu%20curry.jpg"/>
    <image width="5133" height="3255" transform="translate(698 4474) scale(0.24 0.24)" xlink:href="images/Marche%20rosti.jpg"/>
    <image width="5622" height="4000" transform="translate(698 5430) scale(0.22)" xlink:href="images/Natural%20Leaves.jpg"/>
    <image width="1241" height="775" transform="translate(38 6329) scale(1.34)" xlink:href="images/hoshino%20water%20colour%20pasta%20.png"/>
  </g>
  <g id="text">
    <text class="cls-5" transform="translate(509.29 219.24)">My<tspan class="cls-6" x="250.98" y="0" xml:space="preserve"> Designs</tspan></text>
    <text class="cls-7" transform="translate(1021.29 381.95)">The colours of Shibu<tspan class="cls-8" x="467.61" y="0">y</tspan><tspan class="cls-9" x="491.9" y="0">a C</tspan><tspan class="cls-10" x="566.08" y="0">r</tspan><tspan class="cls-11" x="583.05" y="0">ossing</tspan></text>
    <text class="cls-7" transform="translate(54.29 2382.95)">Can <tspan class="cls-12" x="102.71" y="0">y</tspan><tspan class="cls-11" x="127" y="0">ou spot the tiny woodland c</tspan><tspan class="cls-13" x="751.97" y="0">r</tspan><tspan x="768.96" y="0">eatu</tspan><tspan class="cls-13" x="868.82" y="0">r</tspan><tspan x="885.82" y="0">es?</tspan></text>
    <text class="cls-7" transform="translate(200.42 6335.95)"><tspan class="cls-14">P</tspan><tspan x="31.7" y="0">asta in </tspan><tspan class="cls-15" x="-53.58" y="62.32">W</tspan><tspan x="-7.86" y="62.32">ate</tspan><tspan class="cls-13" x="63.48" y="62.32">r</tspan><tspan x="80.47" y="62.32">colours</tspan></text>
    <text class="cls-7" transform="translate(124.27 4657.95)"><tspan class="cls-13">E</tspan><tspan x="29.06" y="0">diting alw</tspan><tspan class="cls-12" x="246.47" y="0">a</tspan><tspan x="273.91" y="0">ys ma</tspan><tspan class="cls-16" x="411.36" y="0">k</tspan><tspan x="436.29" y="0">es </tspan><tspan x="72.87" y="62.32">food look mo</tspan><tspan class="cls-13" x="372.72" y="62.32">r</tspan><tspan class="cls-9" x="389.72" y="62.32">e </tspan><tspan x="140.7" y="124.65">appealing</tspan></text>
    <g>
      <path class="cls-17" d="M293.24,2562.68a205.51,205.51,0,0,1-25.12-11.62c-8.08-4.48-15.82-9.51-23.55-14.48s-15.41-10-23-15.2l-5.66-4-5.61-4c-3.65-2.81-7.39-5.54-10.89-8.55-7.12-5.88-13.89-12.18-20.42-18.73-3.3-3.23-6.38-6.68-9.51-10.09s-6-7-8.89-10.64a263.57,263.57,0,0,1-16.05-22.57,229.62,229.62,0,0,1-13.44-24.14l.43-.25q7.75,11.4,15.94,22.37t17,21.38q8.81,10.43,18.22,20.33L185,2485l2.4,2.42c1.61,1.61,3.17,3.27,4.81,4.85l4.92,4.74c1.64,1.59,3.34,3.1,5,4.65,13.32,12.42,27.44,24.28,43.29,33.5,7.89,4.64,16.17,8.57,24.45,12.4l12.43,5.68c4.15,1.89,8.31,3.75,12.5,5.53Z" transform="translate(2 0)"/>
      <path class="cls-17" d="M285.75,2557.24l-16.32,13.36.45.59,31.58-1.26,31.2,3.82-26.72-16.56-23.84-20.76-.68.09Z" transform="translate(2 0)"/>
    </g>
    <g>
      <path class="cls-18" d="M732.93,484.16c4.57-4.15,9.16-8.28,14-12.16,2.37-2,4.79-3.91,7.21-5.82s4.92-3.74,7.4-5.57a358.49,358.49,0,0,1,31.26-19.8c10.68-6.14,21.41-12.16,32.31-17.9s21.94-11.24,33.27-16.17,23-9,34.78-12.76l8.89-2.66c3-.89,6-1.59,9-2.39s6-1.54,9-2.19l4.52-1c1.51-.33,3-.61,4.55-.91a339.84,339.84,0,0,1,73.6-6.64l0,.5c-12.24,1.16-24.42,2.62-36.52,4.45s-24.12,4.09-36,6.71c-1.49.33-3,.64-4.47,1l-4.45,1.08c-1.48.37-3,.72-4.46,1.06s-3,.75-4.44,1.12c-5.92,1.48-11.79,3.15-17.68,4.77-11.73,3.42-23.3,7.36-34.78,11.57-5.7,2.23-11.47,4.28-17.11,6.67-2.85,1.13-5.64,2.39-8.45,3.62s-5.6,2.49-8.36,3.83a269.32,269.32,0,0,0-32,18c-10.24,6.75-20,14.15-29.75,21.54-4.85,3.72-9.7,7.43-14.48,11.24l-3.58,2.87-3.54,2.91c-2.39,1.91-4.7,3.92-7,5.87Z" transform="translate(2 0)"/>
      <path class="cls-18" d="M741,479.69l-4.52-20.6-.73.13L722.54,488Q713.77,501,705,514l26.87-16.32,29.3-11.85.23-.65Z" transform="translate(2 0)"/>
    </g>
    <g>
      <path class="cls-18" d="M354.81,4540.81c-1.29-6-2.55-12.08-3.5-18.18-.52-3.05-1-6.1-1.4-9.16s-.76-6.13-1.09-9.2a359.61,359.61,0,0,1-1.39-37c.06-12.32.25-24.62.77-36.92s1.32-24.62,2.76-36.89c1.59-12.25,3.78-24.42,6.46-36.48l2.17-9c.72-3,1.63-6,2.44-8.95s1.68-5.94,2.64-8.88l1.41-4.42c.48-1.47,1-2.92,1.5-4.39a339.75,339.75,0,0,1,31.28-67l.44.24q-7.73,16.76-14.53,33.81c-4.52,11.37-8.59,22.9-12.32,34.53-.47,1.45-.95,2.9-1.4,4.36l-1.3,4.39c-.43,1.47-.87,2.93-1.33,4.38s-.84,2.94-1.26,4.4c-1.7,5.87-3.21,11.78-4.77,17.69-2.94,11.86-5.36,23.84-7.49,35.88-.94,6-2.07,12.07-2.84,18.14-.46,3-.77,6.08-1.12,9.13s-.66,6.09-.9,9.15a271.67,271.67,0,0,0-.51,36.76c.68,12.24,2.16,24.41,3.65,36.54.78,6.06,1.56,12.12,2.44,18.17l.68,4.54L357,4531c.45,3,1,6,1.52,9.05Z" transform="translate(2 0)"/>
      <path class="cls-18" d="M355,4531.61l-20.07-6.45-.26.7,18.2,25.84L366.59,4580l-.6-31.43,4.49-31.29-.44-.53Z" transform="translate(2 0)"/>
    </g>
    <text x="2"/>    <g>
      <path class="cls-18" d="M529.4,4767.17a339.6,339.6,0,0,0,33.82,25.13q8.81,5.77,17.93,11.05c6,3.6,12.25,6.9,18.53,10.09a211.06,211.06,0,0,0,39.46,15.06c1.69.51,3.41.9,5.13,1.3l5.14,1.21c3.45.76,6.93,1.33,10.39,2s7,1.07,10.44,1.56,7,.83,10.5,1.1a322.92,322.92,0,0,0,42.07,1,355.15,355.15,0,0,0,41.78-4.74,361.19,361.19,0,0,0,80.72-24.19l.22.45q-4.62,2.64-9.39,5c-3.17,1.59-6.36,3.15-9.6,4.6-6.48,2.93-13.1,5.57-19.79,8s-13.5,4.57-20.39,6.41c-1.71.49-3.44.94-5.17,1.36s-3.45.91-5.19,1.29l-5.23,1.15c-1.74.37-3.5.69-5.24,1l-2.63.51-2.64.45c-1.76.3-3.51.62-5.28.87-3.54.46-7.07,1-10.63,1.34-1.77.18-3.54.4-5.32.54l-5.34.37c-1.78.15-3.57.22-5.35.29l-5.35.21a256.74,256.74,0,0,1-42.67-2.35c-3.53-.49-7-1.17-10.54-1.74s-7-1.4-10.45-2.14c-6.93-1.61-13.81-3.38-20.62-5.36l-5.1-1.51-2.55-.76-2.53-.83-5.06-1.64c-1.7-.52-3.34-1.19-5-1.75s-3.36-1.13-5-1.76-3.32-1.26-5-1.87l-2.5-.92-2.47-1-5-2a220.73,220.73,0,0,1-37.75-19.95c-5.93-4-11.74-8.1-17.29-12.57s-11-9.09-16.15-14Z" transform="translate(2 0)"/>
      <path class="cls-18" d="M506.92,4747.1c6.49,13.68,12.83,32.42,14,46.86l10.44-23,22.76-11C539.65,4759.11,520.76,4753.24,506.92,4747.1Z" transform="translate(2 0)"/>
    </g>
    <text x="2"/>  </g>
</svg>
