<?xml version="1.0" encoding="UTF-8" standalone="no"?>
<svg
   xmlns:dc="http://purl.org/dc/elements/1.1/"
   xmlns:cc="http://creativecommons.org/ns#"
   xmlns:rdf="http://www.w3.org/1999/02/22-rdf-syntax-ns#"
   xmlns:svg="http://www.w3.org/2000/svg"
   xmlns="http://www.w3.org/2000/svg"
   xmlns:xlink="http://www.w3.org/1999/xlink"
   xmlns:sodipodi="http://sodipodi.sourceforge.net/DTD/sodipodi-0.dtd"
   xmlns:inkscape="http://www.inkscape.org/namespaces/inkscape"
   viewBox="0 0 1918 986"
   version="1.1"
   id="svg245"
   sodipodi:docname="home-intro.svg"
   inkscape:version="1.0.2 (e86c8708, 2021-01-15)">
  <metadata
     id="metadata249">
    <rdf:RDF>
      <cc:Work
         rdf:about="">
        <dc:format>image/svg+xml</dc:format>
        <dc:type
           rdf:resource="http://purl.org/dc/dcmitype/StillImage" />
      </cc:Work>
    </rdf:RDF>
  </metadata>
  <sodipodi:namedview
     pagecolor="#ffffff"
     bordercolor="#666666"
     borderopacity="1"
     objecttolerance="10"
     gridtolerance="10"
     guidetolerance="10"
     inkscape:pageopacity="0"
     inkscape:pageshadow="2"
     inkscape:window-width="1440"
     inkscape:window-height="900"
     id="namedview247"
     showgrid="false"
     inkscape:zoom="0.40145985"
     inkscape:cx="959"
     inkscape:cy="493"
     inkscape:window-x="0"
     inkscape:window-y="0"
     inkscape:window-maximized="0"
     inkscape:current-layer="svg245" />
  <defs
     id="defs119">
    <style
       id="style10">
      .cls-1 {
        fill: none;
      }

      .cls-2 {
        fill: #65d6d1;
      }

      .cls-3 {
        isolation: isolate;
      }

      .cls-4 {
        fill: #fff8ef;
      }

      .cls-5 {
        clip-path: url(#clip-path);
      }

      .cls-6 {
        mix-blend-mode: hard-light;
        fill: url(#New_Pattern_2);
      }

      .cls-7 {
        fill: #fed67e;
      }

      .cls-8, .cls-9 {
        fill: #fff;
      }

      .cls-9 {
        mix-blend-mode: soft-light;
      }

      .cls-10 {
        font-size: 80px;
        fill: #0599db;
        font-family: Domine-Bold, Domine;
        font-weight: 700;
      }

      .cls-11 {
        letter-spacing: -0.03em;
      }

      .cls-12 {
        letter-spacing: -0.01em;
      }

      .cls-13 {
        letter-spacing: 0em;
      }

      .cls-14 {
        font-size: 40px;
        fill: #666;
        font-family: Roboto-Light, Roboto;
        font-weight: 300;
      }

      .cls-15 {
        letter-spacing: -0.01em;
      }

      .cls-16 {
        letter-spacing: -0.01em;
      }

      .cls-17 {
        letter-spacing: -0.01em;
      }

      .cls-18 {
        letter-spacing: -0.01em;
      }

      .cls-19 {
        clip-path: url(#clip-path-2);
      }
    </style>
    <clipPath
       id="clip-path">
      <rect
         class="cls-1"
         width="1921"
         height="986"
         id="rect12" />
    </clipPath>
    <pattern
       id="New_Pattern_2"
       data-name="New Pattern 2"
       width="121.74"
       height="214.31"
       patternTransform="matrix(1.18, -0.16, 0.16, 1.18, -46.5, -67.06)"
       patternUnits="userSpaceOnUse"
       viewBox="0 0 121.74 214.31">
      <rect
         class="cls-1"
         width="121.74"
         height="214.31"
         id="rect15" />
      <g
         id="g29">
        <path
           class="cls-2"
           d="M123.89,207.43c.28.51,4.68,8.85,0,17.26-4.48,8-13.24,9-14,9.05a16.09,16.09,0,0,1-3.29-16.44A16.29,16.29,0,0,1,123.89,207.43Z"
           id="path17" />
        <path
           class="cls-2"
           d="M117.89,151.31c.28.51,4.68,8.84,0,17.26-4.48,8-13.24,9-14,9a16.08,16.08,0,0,1-3.29-16.44A16.28,16.28,0,0,1,117.89,151.31Z"
           id="path19" />
        <path
           class="cls-2"
           d="M127.56,180.69c.07.57,1,10-6.55,16-7.18,5.73-15.64,3.28-16.36,3.06a16.07,16.07,0,0,1,3.2-16.46A16.27,16.27,0,0,1,127.56,180.69Z"
           id="path21" />
        <path
           class="cls-2"
           d="M67.35,215.91c-.43-.39-7.32-6.83-5.64-16.31,1.6-9,9.57-12.81,10.24-13.12a16.08,16.08,0,0,1,8.49,14.46A16.28,16.28,0,0,1,67.35,215.91Z"
           id="path23" />
        <path
           class="cls-2"
           d="M94.34,165.14c.32.48,5.38,8.44,1.37,17.2-3.82,8.36-12.48,10-13.21,10.12a16.05,16.05,0,0,1-4.58-16.12A16.26,16.26,0,0,1,94.34,165.14Z"
           id="path25" />
        <path
           class="cls-2"
           d="M80.45,219.65c-.06-.58-.85-10,6.76-15.88,7.26-5.64,15.69-3.08,16.4-2.85a16.08,16.08,0,0,1-3.42,16.42A16.28,16.28,0,0,1,80.45,219.65Z"
           id="path27" />
      </g>
      <g
         id="g45">
        <path
           class="cls-2"
           d="M2.15,207.43c.28.51,4.68,8.85,0,17.26-4.47,8-13.24,9-14,9.05a16.06,16.06,0,0,1-3.28-16.44A16.27,16.27,0,0,1,2.15,207.43Z"
           id="path31" />
        <path
           class="cls-2"
           d="M29.58,170.12c.54-.23,9.28-3.75,17.17,1.79,7.52,5.28,7.55,14.09,7.54,14.83a16.08,16.08,0,0,1-16.69,1.57A16.28,16.28,0,0,1,29.58,170.12Z"
           id="path33" />
        <path
           class="cls-2"
           d="M5.82,180.69c.07.57,1,10-6.54,16-7.19,5.73-15.65,3.28-16.36,3.06a16.07,16.07,0,0,1,3.19-16.46A16.27,16.27,0,0,1,5.82,180.69Z"
           id="path35" />
        <path
           class="cls-2"
           d="M35.52,193.53c-.19.55-3.48,9.38-12.88,11.48-9,2-15.51-3.91-16-4.41a16.09,16.09,0,0,1,10.08-13.4A16.27,16.27,0,0,1,35.52,193.53Z"
           id="path37" />
        <path
           class="cls-2"
           d="M15.74,210.69c.58,0,10-.52,15.65,7.28,5.4,7.44,2.56,15.78,2.31,16.48a16.05,16.05,0,0,1-16.29-3.95A16.27,16.27,0,0,1,15.74,210.69Z"
           id="path39" />
        <path
           class="cls-2"
           d="M34.68,214c-.06-.57-.84-10,6.76-15.88,7.26-5.64,15.7-3.07,16.4-2.84a16,16,0,0,1-3.41,16.41A16.26,16.26,0,0,1,34.68,214Z"
           id="path41" />
        <path
           class="cls-2"
           d="M22.31,179c-.57.09-9.92,1.34-16.2-6-6-7-3.85-15.52-3.66-16.24A16.09,16.09,0,0,1,19,159.39,16.29,16.29,0,0,1,22.31,179Z"
           id="path43" />
      </g>
      <g
         id="g81">
        <path
           class="cls-2"
           d="M63,100.28c.28.51,4.68,8.84,0,17.26-4.48,8-13.24,9-14,9a16.06,16.06,0,0,1-3.28-16.44A16.26,16.26,0,0,1,63,100.28Z"
           id="path47" />
        <path
           class="cls-2"
           d="M117.69,114.54c.28.51,4.69,8.84,0,17.26-4.47,8-13.23,9-14,9a16.06,16.06,0,0,1-3.29-16.44A16.27,16.27,0,0,1,117.69,114.54Z"
           id="path49" />
        <path
           class="cls-2"
           d="M103.15,147.37c-.19.55-3.35,9.44-12.72,11.68-8.94,2.13-15.56-3.68-16.11-4.18a16.07,16.07,0,0,1,9.89-13.54A16.27,16.27,0,0,1,103.15,147.37Z"
           id="path51" />
        <path
           class="cls-2"
           d="M66.61,172.45c-.56.14-9.75,2.25-16.67-4.46-6.6-6.39-5.25-15.1-5.12-15.83a16.08,16.08,0,0,1,16.73,1.07A16.27,16.27,0,0,1,66.61,172.45Z"
           id="path53" />
        <path
           class="cls-2"
           d="M57,44.15c.28.51,4.68,8.85,0,17.26-4.48,8-13.24,9-14,9A16.06,16.06,0,0,1,39.76,54,16.27,16.27,0,0,1,57,44.15Z"
           id="path55" />
        <path
           class="cls-2"
           d="M81.6,132.69c-.2.55-3.49,9.38-12.89,11.49-9,2-15.5-3.91-16-4.42a16.05,16.05,0,0,1,10.09-13.39C69.39,123.88,77.25,126.42,81.6,132.69Z"
           id="path57" />
        <path
           class="cls-2"
           d="M90.45,63c.54-.23,9.28-3.74,17.17,1.79,7.52,5.28,7.55,14.09,7.54,14.84a16.08,16.08,0,0,1-16.69,1.56A16.27,16.27,0,0,1,90.45,63Z"
           id="path59" />
        <path
           class="cls-2"
           d="M66.69,73.53c.07.58,1,10-6.55,16C53,95.24,44.5,92.79,43.79,92.57A16.07,16.07,0,0,1,47,76.11,16.27,16.27,0,0,1,66.69,73.53Z"
           id="path61" />
        <path
           class="cls-2"
           d="M96.39,86.37c-.19.55-3.48,9.39-12.88,11.49-9,2-15.51-3.91-16.05-4.42A16.07,16.07,0,0,1,77.54,80.05,16.27,16.27,0,0,1,96.39,86.37Z"
           id="path63" />
        <path
           class="cls-2"
           d="M76.61,103.54c.58,0,10-.52,15.65,7.28,5.4,7.44,2.56,15.78,2.31,16.48a16.07,16.07,0,0,1-16.29-4A16.27,16.27,0,0,1,76.61,103.54Z"
           id="path65" />
        <path
           class="cls-2"
           d="M16.9,141.48c-.56-.15-9.64-2.68-12.53-11.87-2.76-8.77,2.58-15.78,3-16.36a16.08,16.08,0,0,1,14.2,8.91A16.28,16.28,0,0,1,16.9,141.48Z"
           id="path67" />
        <path
           class="cls-2"
           d="M6.48,108.75c-.43-.39-7.32-6.82-5.64-16.31,1.6-9,9.57-12.81,10.24-13.11a16.07,16.07,0,0,1,8.49,14.46A16.27,16.27,0,0,1,6.48,108.75Z"
           id="path69" />
        <path
           class="cls-2"
           d="M33.47,58c.32.49,5.38,8.45,1.37,17.21-3.82,8.36-12.48,10-13.21,10.12a16.07,16.07,0,0,1-4.58-16.13A16.27,16.27,0,0,1,33.47,58Z"
           id="path71" />
        <path
           class="cls-2"
           d="M19.58,112.5c-.06-.58-.85-10,6.76-15.89C33.6,91,42,93.54,42.74,93.77a16.06,16.06,0,0,1-3.42,16.41A16.27,16.27,0,0,1,19.58,112.5Z"
           id="path73" />
        <path
           class="cls-2"
           d="M95.55,106.81c-.06-.58-.85-10,6.76-15.88,7.26-5.64,15.7-3.08,16.4-2.85a16.05,16.05,0,0,1-3.41,16.41A16.28,16.28,0,0,1,95.55,106.81Z"
           id="path75" />
        <path
           class="cls-2"
           d="M19.68,150.42c0-.58,0-10,8.1-15.25,7.72-5,15.9-1.72,16.58-1.43a16.06,16.06,0,0,1-4.8,16.06A16.29,16.29,0,0,1,19.68,150.42Z"
           id="path77" />
        <path
           class="cls-2"
           d="M83.18,71.84c-.58.09-9.92,1.35-16.2-6-6-7-3.85-15.52-3.66-16.23a16.09,16.09,0,0,1,16.57,2.59A16.28,16.28,0,0,1,83.18,71.84Z"
           id="path79" />
      </g>
      <g
         id="g97">
        <path
           class="cls-2"
           d="M123.89-6.88c.28.51,4.68,8.85,0,17.26-4.48,8-13.24,9-14,9A16.09,16.09,0,0,1,106.62,3,16.29,16.29,0,0,1,123.89-6.88Z"
           id="path83" />
        <path
           class="cls-2"
           d="M127.48,65.3c-.56.14-9.75,2.24-16.67-4.46-6.6-6.4-5.25-15.11-5.13-15.84a16.08,16.08,0,0,1,16.74,1.08A16.26,16.26,0,0,1,127.48,65.3Z"
           id="path85" />
        <path
           class="cls-2"
           d="M142.47,25.54c-.2.54-3.49,9.38-12.89,11.48-9,2-15.51-3.91-16.05-4.42a16.07,16.07,0,0,1,10.09-13.39A16.28,16.28,0,0,1,142.47,25.54Z"
           id="path87" />
        <path
           class="cls-2"
           d="M77.77,34.32c-.56-.14-9.64-2.67-12.53-11.87-2.76-8.76,2.58-15.78,3-16.36A16.07,16.07,0,0,1,82.48,15,16.27,16.27,0,0,1,77.77,34.32Z"
           id="path89" />
        <path
           class="cls-2"
           d="M67.35,1.6c-.43-.39-7.32-6.83-5.64-16.31,1.6-9,9.57-12.81,10.24-13.12a16.08,16.08,0,0,1,8.49,14.46A16.28,16.28,0,0,1,67.35,1.6Z"
           id="path91" />
        <path
           class="cls-2"
           d="M80.45,5.34c-.06-.58-.85-10,6.76-15.88,7.26-5.64,15.69-3.08,16.4-2.85A16.08,16.08,0,0,1,100.19,3,16.28,16.28,0,0,1,80.45,5.34Z"
           id="path93" />
        <path
           class="cls-2"
           d="M80.55,43.26c0-.58,0-10,8.1-15.24,7.72-5,15.9-1.72,16.58-1.43a16,16,0,0,1-4.81,16.06A16.27,16.27,0,0,1,80.55,43.26Z"
           id="path95" />
      </g>
      <g
         id="g113">
        <path
           class="cls-2"
           d="M2.15-6.88c.28.51,4.68,8.85,0,17.26-4.47,8-13.24,9-14,9A16.06,16.06,0,0,1-15.11,3,16.27,16.27,0,0,1,2.15-6.88Z"
           id="path99" />
        <path
           class="cls-2"
           d="M56.82,7.38c.28.51,4.69,8.85,0,17.27-4.47,8-13.23,9-14,9a16.07,16.07,0,0,1-3.29-16.44A16.28,16.28,0,0,1,56.82,7.38Z"
           id="path101" />
        <path
           class="cls-2"
           d="M42.28,40.22c-.19.55-3.35,9.43-12.72,11.67C20.62,54,14,48.21,13.45,47.71a16.07,16.07,0,0,1,9.89-13.54A16.28,16.28,0,0,1,42.28,40.22Z"
           id="path103" />
        <path
           class="cls-2"
           d="M5.74,65.3c-.56.14-9.75,2.24-16.67-4.46C-17.53,54.44-16.18,45.73-16,45A16.06,16.06,0,0,1,.68,46.08,16.26,16.26,0,0,1,5.74,65.3Z"
           id="path105" />
        <path
           class="cls-2"
           d="M20.73,25.54c-.2.54-3.49,9.38-12.89,11.48-9,2-15.5-3.91-16-4.42A16.07,16.07,0,0,1,1.88,19.21,16.28,16.28,0,0,1,20.73,25.54Z"
           id="path107" />
        <path
           class="cls-2"
           d="M15.74-3.62c.58,0,10-.52,15.65,7.28C36.79,11.1,34,19.44,33.7,20.14a16.05,16.05,0,0,1-16.29-3.95A16.27,16.27,0,0,1,15.74-3.62Z"
           id="path109" />
        <path
           class="cls-2"
           d="M34.68-.35c-.06-.57-.84-10,6.76-15.88,7.26-5.64,15.7-3.07,16.4-2.84A16,16,0,0,1,54.43-2.66,16.26,16.26,0,0,1,34.68-.35Z"
           id="path111" />
      </g>
    </pattern>
    <clipPath
       id="clip-path-2">
      <circle
         class="cls-1"
         cx="1401.5"
         cy="496.5"
         r="245.5"
         id="circle116" />
    </clipPath>
  </defs>
  <g
     class="cls-3"
     id="g243">
    <g
       id="background">
      <g
         id="Layer_5"
         data-name="Layer 5">
        <rect
           class="cls-4"
           x="2"
           y="1"
           width="1916"
           height="985"
           id="rect121" />
        <g
           class="cls-5"
           clip-path="url(#clip-path)"
           id="g187">
          <path
             class="cls-6"
             d="M315.84-199.33l220.27-156c44.11-31.24,104.85,1.71,102.79,55.76L628.6-29.66a65.3,65.3,0,0,0,26.16,54.8L871,186.64C914.34,219,901.8,287,849.82,301.73L590.21,375.34a65.18,65.18,0,0,0-44,41.84L459.63,673c-17.34,51.23-85.83,60.31-115.9,15.37L193.58,463.94A65.16,65.16,0,0,0,140.24,435l-269.8-3.4c-54-.69-83.82-63.09-50.41-105.6L-13.16,113.7A65.29,65.29,0,0,0-2.16,54L-82.29-203.93c-16-51.65,34-99.3,84.74-80.63l253.24,93.21A65.16,65.16,0,0,0,315.84-199.33Z"
             id="path123" />
          <path
             class="cls-7"
             d="M1386.08,1189c22.85-18.43,85.53-105.59,81.51-133.9-5.33-37.57,1.82-62.77,10.54-79.7,13.36-25.93,26.23-24,44.42-55.85,23.29-40.81,16.14-89.88,13.36-134.67-.73-11.79,56.55,37.36,74.55,34.9,11-1.5,22.1-.54,33,1.57,30.5,5.94,32.55-17,53.52-23,41.85-12,21.26,16.74,66.51,6.67,48.19-10.71,44.51,40.47,96.4,32.73,11.84-1.77,86.49-14.26,108.76-71.68,9.79-25.23,9.69-59.73-7.72-84.2-16.07-22.59-7.4-60.24-49-87.1-12.89-8.33-62.26-88-94.28-110.38-24.81-17.32-110.81-62.23-111-62.36-12.83-12.19,43.24-47.93,60.46-52A409,409,0,0,0,1815,355.56c25.72-9.52,55-61.38,97.22-97.84,25.31-21.86,54.56-91.58,44.55-146.45a19.16,19.16,0,0,0-5.25-10.08c-39.55-39.91-110.38-58.44-172.75-26-41.87,21.77-59.57-7.42-153.36,33.67-66.47,29.12-73.49,59.91-98,55.21-40.13-7.68-38.26-18.35-40.23-21.37-19.11-29.36-10.32-48.79-29.19-82.43-12.37-22-27.9-36.34-45.9-48.6-37.33-25.4-59.37-14.43-115.37-30.78-71-20.72-83-52.17-106.76-41.87-29.31,12.68-102.87,28.06-105.66,101-2,51.87-3.28,85.57,10.49,129,17.45,55,29.44,10.79,56.66,77.71,11.33,27.85,24.26,56.43,33.13,77.89-20.42,23.55-26.83,31.52-61.67,25.17-65.81-12-67.58-33.89-128.59-44.41-52.54-9.07-76.18,11.8-100.86,2.05C867,297,852,319.85,794.6,346.69c-9.66,4.51-63.86,64.78-61.35,75.14,13.67,56.37,51.34,78.48,76.93,111,31.67,40.23,45.9,29,125.26,99.21,45.23,40,48,50.22,72.19,58.13,46,15.06,62.56,42.71,115.93,33.84,10.22-1.7,69-15.56,73-6,18.71,45,2.7,51.51.91,68.6-6.43,61.59-27.92,39.66-18.59,110.35,6.55,49.64,30.11,47.54,38.28,103.76,9.58,65.86,15.32,127.53,28.89,140.42C1285.91,1179,1331.29,1188.48,1386.08,1189Z"
             id="path125" />
          <g
             id="g183">
            <ellipse
               class="cls-8"
               cx="545.2"
               cy="640.61"
               rx="11.69"
               ry="11.71"
               id="ellipse127" />
            <ellipse
               class="cls-8"
               cx="545.2"
               cy="684.74"
               rx="11.69"
               ry="11.71"
               id="ellipse129" />
            <ellipse
               class="cls-8"
               cx="545.2"
               cy="728.87"
               rx="11.69"
               ry="11.71"
               id="ellipse131" />
            <ellipse
               class="cls-8"
               cx="545.2"
               cy="772.99"
               rx="11.69"
               ry="11.71"
               id="ellipse133" />
            <ellipse
               class="cls-9"
               cx="545.2"
               cy="817.12"
               rx="11.69"
               ry="11.71"
               id="ellipse135" />
            <ellipse
               class="cls-8"
               cx="592.01"
               cy="640.61"
               rx="11.69"
               ry="11.71"
               id="ellipse137" />
            <ellipse
               class="cls-9"
               cx="592.01"
               cy="859.95"
               rx="11.69"
               ry="11.71"
               id="ellipse139" />
            <ellipse
               class="cls-8"
               cx="592.01"
               cy="684.74"
               rx="11.69"
               ry="11.71"
               id="ellipse141" />
            <ellipse
               class="cls-8"
               cx="592.01"
               cy="728.87"
               rx="11.69"
               ry="11.71"
               id="ellipse143" />
            <ellipse
               class="cls-8"
               cx="592.01"
               cy="772.99"
               rx="11.69"
               ry="11.71"
               id="ellipse145" />
            <ellipse
               class="cls-9"
               cx="592.01"
               cy="816.7"
               rx="11.69"
               ry="11.71"
               id="ellipse147" />
            <ellipse
               class="cls-8"
               cx="638.58"
               cy="640.61"
               rx="11.69"
               ry="11.71"
               id="ellipse149" />
            <ellipse
               class="cls-8"
               cx="638.58"
               cy="684.74"
               rx="11.69"
               ry="11.71"
               id="ellipse151" />
            <ellipse
               class="cls-8"
               cx="638.58"
               cy="728.87"
               rx="11.69"
               ry="11.71"
               id="ellipse153" />
            <ellipse
               class="cls-8"
               cx="638.58"
               cy="772.99"
               rx="11.69"
               ry="11.71"
               id="ellipse155" />
            <ellipse
               class="cls-8"
               cx="638.58"
               cy="817.12"
               rx="11.69"
               ry="11.71"
               id="ellipse157" />
            <ellipse
               class="cls-9"
               cx="545.2"
               cy="860.82"
               rx="11.69"
               ry="11.71"
               id="ellipse159" />
            <ellipse
               class="cls-9"
               cx="638.58"
               cy="860.82"
               rx="11.69"
               ry="11.71"
               id="ellipse161" />
            <ellipse
               class="cls-8"
               cx="685.55"
               cy="640.61"
               rx="11.69"
               ry="11.71"
               id="ellipse163" />
            <ellipse
               class="cls-8"
               cx="685.55"
               cy="684.74"
               rx="11.69"
               ry="11.71"
               id="ellipse165" />
            <ellipse
               class="cls-8"
               cx="685.55"
               cy="728.87"
               rx="11.69"
               ry="11.71"
               id="ellipse167" />
            <ellipse
               class="cls-8"
               cx="685.55"
               cy="772.99"
               rx="11.69"
               ry="11.71"
               id="ellipse169" />
            <ellipse
               class="cls-8"
               cx="685.55"
               cy="817.12"
               rx="11.69"
               ry="11.71"
               id="ellipse171" />
            <ellipse
               class="cls-8"
               cx="685.55"
               cy="860.82"
               rx="11.69"
               ry="11.71"
               id="ellipse173" />
            <ellipse
               class="cls-9"
               cx="592.01"
               cy="904.42"
               rx="11.69"
               ry="11.71"
               id="ellipse175" />
            <ellipse
               class="cls-9"
               cx="545.2"
               cy="905.29"
               rx="11.69"
               ry="11.71"
               id="ellipse177" />
            <ellipse
               class="cls-9"
               cx="638.58"
               cy="905.29"
               rx="11.69"
               ry="11.71"
               id="ellipse179" />
            <ellipse
               class="cls-9"
               cx="685.55"
               cy="905.29"
               rx="11.69"
               ry="11.71"
               id="ellipse181" />
          </g>
          <rect
             class="cls-1"
             x="1"
             y="1"
             width="1920"
             height="848"
             id="rect185" />
        </g>
      </g>
    </g>
    <g
       id="text">
      <text
         class="cls-10"
         transform="translate(277.24 331.14)"
         id="text199">Hi I’m<tspan
   class="cls-11"
   x="241.68"
   y="0"
   id="tspan191" /><tspan
   x="257.84"
   y="0"
   id="tspan193">Al</tspan><tspan
   class="cls-12"
   x="342.16"
   y="0"
   id="tspan195">e</tspan><tspan
   class="cls-13"
   x="385.44"
   y="0"
   id="tspan197">xandria!</tspan></text>
      <text
         class="cls-14"
         transform="translate(377.52 410.26)"
         id="text235">I<tspan
   class="cls-15"
   x="10.64"
   y="0"
   id="tspan201">’</tspan><tspan
   x="17.36"
   y="0"
   id="tspan203">m an aspiring UX designer </tspan><tspan
   x="-100.64"
   y="96"
   id="tspan205">I</tspan><tspan
   class="cls-15"
   x="-90"
   y="96"
   id="tspan207">’</tspan><tspan
   x="-83.28"
   y="96"
   id="tspan209">m also </tspan><tspan
   class="cls-16"
   x="44.67"
   y="96"
   id="tspan211">r</tspan><tspan
   x="57.75"
   y="96"
   id="tspan213">eally passionate about helping</tspan><tspan
   x="102.5"
   y="144"
   id="tspan215">child</tspan><tspan
   class="cls-16"
   x="185.21"
   y="144"
   id="tspan217">r</tspan><tspan
   x="198.3"
   y="144"
   id="tspan219">en &amp; </tspan><tspan
   class="cls-17"
   x="285"
   y="144"
   id="tspan221">y</tspan><tspan
   x="303.71"
   y="144"
   id="tspan223">outh</tspan><tspan
   x="-90.71"
   y="192"
   id="tspan225">become better </tspan><tspan
   class="cls-18"
   x="173.35"
   y="192"
   id="tspan227">v</tspan><tspan
   x="192.33"
   y="192"
   id="tspan229">ersions of themsel</tspan><tspan
   class="cls-18"
   x="516.2"
   y="192"
   id="tspan231">v</tspan><tspan
   x="535.19"
   y="192"
   id="tspan233">es</tspan></text>
    </g>
    <g
       id="pictures">
      <g
         class="cls-19"
         clip-path="url(#clip-path-2)"
         id="g240">
        <image
           sodipodi:absref="/Users/zui/kode/web/alexnicole70.github.io/src/assets/profile_pic.png"
           xlink:href="../profile_pic.png"
           id="image238"
           transform="translate(809.85 186.03) scale(0.17)"
           height="3456"
           width="5184" />
      </g>
    </g>
  </g>
</svg>
