<svg xmlns="http://www.w3.org/2000/svg" xmlns:xlink="http://www.w3.org/1999/xlink" viewBox="0 0 2218.61 6388.73">
  <defs>
    <style>
      .cls-1, .cls-60, .cls-61 {
        fill: none;
      }

      .cls-2 {
        fill: #f07382;
      }

      .cls-3, .cls-34, .cls-36 {
        fill: #fff;
      }

      .cls-4, .cls-52 {
        fill: #fff8ef;
      }

      .cls-5 {
        fill: #65d6d1;
      }

      .cls-6 {
        fill: #f7e999;
      }

      .cls-7 {
        clip-path: url(#clip-path);
      }

      .cls-8 {
        clip-path: url(#clip-path-2);
      }

      .cls-9 {
        clip-path: url(#clip-path-3);
      }

      .cls-10 {
        font-size: 80px;
        fill: #ebebeb;
      }

      .cls-10, .cls-26, .cls-36 {
        font-family: Domine-Regular, Domine;
      }

      .cls-11 {
        letter-spacing: -0.03em;
      }

      .cls-12 {
        letter-spacing: -0.03em;
      }

      .cls-13, .cls-26, .cls-34, .cls-36 {
        font-size: 20px;
      }

      .cls-13, .cls-34 {
        font-family: Roboto-Light, Roboto;
        font-weight: 300;
      }

      .cls-14 {
        letter-spacing: -0.02em;
      }

      .cls-15 {
        letter-spacing: -0.05em;
      }

      .cls-16 {
        letter-spacing: -0.01em;
      }

      .cls-17 {
        letter-spacing: -0.01em;
      }

      .cls-18 {
        letter-spacing: -0.01em;
      }

      .cls-19 {
        letter-spacing: -0.01em;
      }

      .cls-20 {
        letter-spacing: 0.02em;
      }

      .cls-21 {
        letter-spacing: -0.06em;
      }

      .cls-22 {
        letter-spacing: -0.01em;
      }

      .cls-23 {
        letter-spacing: -0.05em;
      }

      .cls-24 {
        letter-spacing: 0.01em;
      }

      .cls-25 {
        letter-spacing: 0.01em;
      }

      .cls-27 {
        letter-spacing: 0em;
      }

      .cls-28 {
        letter-spacing: -0.01em;
      }

      .cls-29 {
        letter-spacing: -0.01em;
      }

      .cls-30 {
        letter-spacing: -0.01em;
      }

      .cls-31 {
        letter-spacing: -0.01em;
      }

      .cls-32 {
        letter-spacing: -0.01em;
      }

      .cls-33 {
        letter-spacing: -0.01em;
      }

      .cls-35 {
        letter-spacing: -0.01em;
      }

      .cls-37 {
        letter-spacing: -0.02em;
      }

      .cls-38 {
        letter-spacing: -0.01em;
      }

      .cls-39 {
        letter-spacing: -0.02em;
      }

      .cls-40 {
        letter-spacing: -0.03em;
      }

      .cls-41 {
        letter-spacing: -0.05em;
      }

      .cls-42 {
        letter-spacing: -0.01em;
      }

      .cls-43 {
        letter-spacing: -0.03em;
      }

      .cls-44 {
        letter-spacing: -0.01em;
      }

      .cls-45 {
        letter-spacing: -0.02em;
      }

      .cls-46 {
        letter-spacing: -0.06em;
      }

      .cls-47 {
        letter-spacing: -0.02em;
      }

      .cls-48 {
        letter-spacing: 0em;
      }

      .cls-49 {
        letter-spacing: -0.03em;
      }

      .cls-50 {
        letter-spacing: 0.01em;
      }

      .cls-51 {
        letter-spacing: -0.02em;
      }

      .cls-52 {
        font-size: 40px;
        font-family: Domine-Bold, Domine;
        font-weight: 700;
      }

      .cls-53 {
        letter-spacing: -0.06em;
      }

      .cls-54 {
        letter-spacing: -0.05em;
      }

      .cls-55 {
        letter-spacing: 0em;
      }

      .cls-56 {
        letter-spacing: -0.01em;
      }

      .cls-57 {
        letter-spacing: -0.02em;
      }

      .cls-58 {
        letter-spacing: 0em;
      }

      .cls-59 {
        letter-spacing: -0.02em;
      }

      .cls-60, .cls-61 {
        stroke: #fff;
        stroke-miterlimit: 10;
      }

      .cls-60 {
        stroke-width: 6.51px;
      }

      .cls-61 {
        stroke-width: 6.21px;
      }
    </style>
    <clipPath id="clip-path" transform="translate(0.5 -0.41)">
      <rect class="cls-1" x="223" y="1418" width="1512" height="471"/>
    </clipPath>
    <clipPath id="clip-path-2" transform="translate(0.5 -0.41)">
      <rect class="cls-1" x="244.96" y="960.88" width="461.04" height="321.12"/>
    </clipPath>
    <clipPath id="clip-path-3" transform="translate(0.5 -0.41)">
      <rect class="cls-1" x="1365" y="1942" width="357" height="276"/>
    </clipPath>
  </defs>
  <g id="Background">
    <path class="cls-2" d="M-.5,232.5V4880h1921V232.5ZM968.37,3771.33c-6.45,0-6.44-12.58,0-12.58S974.8,3771.33,968.37,3771.33Z" transform="translate(0.5 -0.41)"/>
    <rect class="cls-3" x="223.15" y="1915.59" width="728.35" height="349"/>
    <rect class="cls-3" x="223.28" y="488.59" width="820.22" height="438"/>
    <rect class="cls-4" x="222.89" y="2634.59" width="1517.61" height="517"/>
    <rect class="cls-5" x="223.15" y="942.59" width="994.35" height="455"/>
    <rect class="cls-5" x="223" y="2284.59" width="728.5" height="330"/>
    <rect class="cls-6" x="223.24" y="3171.59" width="493.26" height="885"/>
    <rect class="cls-3" x="734.06" y="3171.59" width="493.26" height="885"/>
    <rect class="cls-5" x="1249.06" y="3171.59" width="493.26" height="885"/>
    <rect class="cls-5" x="222.88" y="4076.59" width="745.62" height="720"/>
    <rect class="cls-6" x="1004.5" y="4076.59" width="741.91" height="720"/>
    <rect class="cls-3" x="1238.24" y="942.59" width="497.26" height="455"/>
    <rect class="cls-6" x="1058.35" y="484.59" width="677.15" height="442"/>
    <rect class="cls-6" x="969.5" y="1915.59" width="771" height="699"/>
    <rect class="cls-6" x="223.5" y="2634.59" width="407" height="203"/>
    <g class="cls-7">
      <image width="9601" height="5401" transform="translate(224.5 1417.59) scale(0.16)" xlink:href="../../photos/personal%20website%20/chiko%20pattern%204.jpg"/>
    </g>
    <rect class="cls-3" x="1261.5" y="1728.59" width="474" height="160"/>
  </g>
  <g id="photos">
    <image width="5472" height="3648" transform="translate(231.37 705.59) scale(0.06)" xlink:href="../../photos/personal%20website%20/IMG_0725.JPG"/>
    <image width="1620" height="2160" transform="translate(1406.7 2670.71) rotate(-3.22) scale(0.21)" xlink:href="../../../../Downloads/Untitled%20-%2016%20February%202021%2020.55.22%20copy%20(2).png"/>
    <image width="2160" height="1620" transform="translate(616.5 2602.59) scale(0.19)" xlink:href="../../../../Downloads/Untitled_Artwork.png"/>
    <image width="1991" height="1105" transform="translate(965.36 2649.59) scale(0.25)" xlink:href="DesignPage1.png"/>
    <image width="1620" height="2160" transform="translate(256.5 2764.59) scale(0.19)" xlink:href="../../../../Downloads/Untitled_Artwork%203.png"/>
    <image width="2160" height="1620" transform="translate(830.5 2898.65) rotate(-2.37) scale(0.14)" xlink:href="../../../../Downloads/Untitled%20-%2019%20January%202021%2022.25.32.png"/>
    <image width="4500" height="4509" transform="translate(1074.5 493.59) scale(0.09)" xlink:href="../../photos/personal%20website%20/Alex%20paper%20cutout%202.jpg"/>
    <image width="5472" height="3648" transform="translate(725.5 960.59) scale(0.09 0.09)" xlink:href="../../photos/personal%20website%20/IMG_6375%20(1).JPG"/>
    <g class="cls-8">
      <image width="5415" height="3610" transform="translate(228.65 960.22) scale(0.09 0.09)" xlink:href="../../photos/personal%20website%20/Book%20of%20Mormon%20picture%203.jpg"/>
    </g>
    <image width="2000" height="1333" transform="translate(1250.5 963.59) scale(0.24)" xlink:href="../../photos/personal%20website%20/Girl%20dancing%20in%20sunset%204.jpg"/>
    <image width="5472" height="3648" transform="translate(1369.5 2362.59) scale(0.06 0.06)" xlink:href="../../photos/personal%20website%20/IMG_6732.JPG"/>
    <image width="4448" height="3433" transform="translate(993.5 1941.59) scale(0.08)" xlink:href="../../photos/personal%20website%20/Tonkatsu%20curry.jpg"/>
    <image width="5133" height="3255" transform="translate(990.5 2363.59) scale(0.07 0.07)" xlink:href="../../photos/personal%20website%20/Marche%20rosti.jpg"/>
    <image width="5622" height="4000" transform="translate(236.5 1927.59) scale(0.08)" xlink:href="../../photos/personal%20website%20/Natural%20Leaves.jpg"/>
    <g class="cls-9">
      <image width="5472" height="3648" transform="translate(1335.5 1941.59) scale(0.08)" xlink:href="../../photos/personal%20website%20/IMG_6880.JPG"/>
    </g>
    <image width="3351" height="2566" transform="translate(247.5 4094.59) scale(0.21)" xlink:href="DesignPage2.png"/>
    <image width="2160" height="1620" transform="translate(541.5 2898.59) scale(0.14)" xlink:href="../../../../Downloads/Untitled_Artwork%207.png"/>
    <image width="2160" height="1620" transform="translate(1140.5 2873.59) scale(0.16)" xlink:href="../../../../Downloads/Untitled_Artwork%202.png"/>
    <image width="3000" height="2001" transform="translate(238.5 2299.59) scale(0.15)" xlink:href="DesignPage3.png"/>
    <image width="4616" height="5472" transform="translate(747.5 3184.59) scale(0.1)" xlink:href="DesignPage4.png"/>
    <image width="2983" height="3977" transform="translate(1272.47 3184.59) scale(0.15)" xlink:href="DesignPage5.png"/>
    <image width="2160" height="1620" transform="translate(1021.5 4097.59) scale(0.33)" xlink:href="DesignPage6.png"/>
    <image width="1678" height="2238" transform="translate(257.5 3171.59) scale(0.25)" xlink:href="DesignPage7.png"/>
  </g>
  <g id="text">
    <text class="cls-10" transform="translate(704.11 393.23)"><tspan class="cls-11">M</tspan><tspan class="cls-12" x="74.8" y="0">y</tspan><tspan x="119.76" y="0" xml:space="preserve"> Designs</tspan></text>
    <text x="0.5" y="-0.41"/>    <text x="0.5" y="-0.41"/>    <text class="cls-13" transform="translate(594.34 793.15)">Japan is a vib<tspan class="cls-14" x="119.6" y="0">r</tspan><tspan x="125.94" y="0">ant and bustling cit</tspan><tspan class="cls-15" x="292.34" y="0">y</tspan><tspan x="300.8" y="0">, so I </tspan><tspan class="cls-16" x="0" y="24">r</tspan><tspan x="6.54" y="24">eally wanted </tspan><tspan class="cls-17" x="120.43" y="24">t</tspan><tspan x="126.66" y="24">o being out its li</tspan><tspan class="cls-18" x="263.91" y="24">v</tspan><tspan x="273.4" y="24">eliness </tspan><tspan class="cls-19" x="339.13" y="24">b</tspan><tspan x="350.11" y="24">y </tspan><tspan x="0" y="48">exagge</tspan><tspan class="cls-20" x="63.29" y="48">r</tspan><tspan x="70.51" y="48">ting the shades of colou</tspan><tspan class="cls-21" x="280.07" y="48">r</tspan><tspan x="285.6" y="48">. I was </tspan><tspan x="0" y="72">going for the anime-style look which is also </tspan><tspan x="0" y="96">akin </tspan><tspan class="cls-17" x="40.84" y="96">t</tspan><tspan x="47.07" y="96">o </tspan></text>
    <text class="cls-13" transform="translate(1511.34 855.15)">Done on Illust<tspan class="cls-14" x="119.36" y="0">r</tspan><tspan x="125.69" y="0">a</tspan><tspan class="cls-17" x="136.41" y="0">t</tspan><tspan x="142.64" y="0">or </tspan><tspan class="cls-19" x="0" y="24">b</tspan><tspan x="10.98" y="24">y stacking l</tspan><tspan class="cls-22" x="108.61" y="24">a</tspan><tspan class="cls-18" x="119.18" y="24">y</tspan><tspan x="128.55" y="24">ers </tspan><tspan x="0" y="48">of colour </tspan></text>
    <text class="cls-13" transform="translate(1261.34 1342.15)">Sur<tspan class="cls-17" x="29.56" y="0">r</tspan><tspan x="36.09" y="0">ounded </tspan><tspan class="cls-19" x="106.69" y="0">b</tspan><tspan x="117.67" y="0">y mythical smo</tspan><tspan class="cls-17" x="250.56" y="0">k</tspan><tspan x="260.16" y="0">e, this girl looks </tspan><tspan x="0" y="24">appears </tspan><tspan class="cls-17" x="75.64" y="24">t</tspan><tspan x="81.88" y="24">o be conjuring dark magic </tspan><tspan class="cls-19" x="312.8" y="24">b</tspan><tspan x="323.78" y="24">y the sunset.</tspan><tspan x="0" y="48"> </tspan></text>
    <text class="cls-13" transform="translate(708.34 1986.15)">An interlacing of images <tspan x="0" y="24">that highlight the wo</tspan><tspan class="cls-16" x="178.13" y="24">r</tspan><tspan x="184.68" y="24">d</tspan><tspan class="cls-23" x="195.79" y="24">’</tspan><tspan x="198.25" y="24">s </tspan><tspan x="0" y="48">meaning. </tspan><tspan x="0" y="72"> </tspan><tspan x="0" y="96"> </tspan></text>
    <text class="cls-13" transform="translate(990.34 2280.15)">One of my f<tspan class="cls-22" x="101.11" y="0">av</tspan><tspan x="121.15" y="0">ourite things </tspan><tspan class="cls-17" x="235.13" y="0">t</tspan><tspan x="241.36" y="0">o edit is food, espeically since I l</tspan><tspan class="cls-22" x="519.4" y="0">o</tspan><tspan class="cls-18" x="530.46" y="0">v</tspan><tspan x="539.95" y="0">e cooking. In my </tspan><tspan x="0" y="24">edits, I l</tspan><tspan class="cls-22" x="65.84" y="24">o</tspan><tspan class="cls-18" x="76.89" y="24">v</tspan><tspan x="86.39" y="24">e </tspan><tspan class="cls-16" x="101.58" y="24">r</tspan><tspan x="108.13" y="24">es</tspan><tspan class="cls-17" x="128.58" y="24">t</tspan><tspan x="134.81" y="24">oring the richness of its colour </tspan><tspan class="cls-17" x="404.04" y="24">t</tspan><tspan x="410.27" y="24">o ma</tspan><tspan class="cls-17" x="454.78" y="24">k</tspan><tspan x="464.38" y="24">e the food look appealing and </tspan><tspan x="0" y="48">delectable. </tspan></text>
    <text class="cls-13" transform="translate(1274.34 1780.15)">Chikorita and its <tspan class="cls-18" x="146.23" y="0">e</tspan><tspan class="cls-22" x="156.44" y="0">v</tspan><tspan x="165.91" y="0">olutiona</tspan><tspan class="cls-24" x="236.39" y="0">r</tspan><tspan x="243.29" y="0">y line h</tspan><tspan class="cls-22" x="303.78" y="0">a</tspan><tspan class="cls-18" x="314.35" y="0">v</tspan><tspan x="323.84" y="0">e been my </tspan><tspan x="0" y="24">f</tspan><tspan class="cls-22" x="6.62" y="24">av</tspan><tspan x="26.66" y="24">ourite </tspan><tspan class="cls-18" x="81.68" y="24">P</tspan><tspan x="93.87" y="24">o</tspan><tspan class="cls-17" x="105.07" y="24">k</tspan><tspan x="114.67" y="24">émon since I was </tspan><tspan class="cls-22" x="271.84" y="24">y</tspan><tspan x="281.19" y="24">oung. I wanted </tspan><tspan class="cls-17" x="414.79" y="24">t</tspan><tspan x="421.03" y="24">o </tspan><tspan x="0" y="48">bring out their pl</tspan><tspan class="cls-22" x="142.09" y="48">a</tspan><tspan class="cls-25" x="152.66" y="48">y</tspan><tspan x="162.29" y="48">ful and nuturing tendecies with </tspan><tspan x="0" y="72">this design. p.s. Can </tspan><tspan class="cls-22" x="179.82" y="72">y</tspan><tspan x="189.18" y="72">ou spot the tiny c</tspan><tspan class="cls-16" x="339.09" y="72">r</tspan><tspan x="345.63" y="72">eatu</tspan><tspan class="cls-16" x="384.09" y="72">r</tspan><tspan x="390.63" y="72">es </tspan><tspan x="0" y="96">hiding in the g</tspan><tspan class="cls-14" x="122.02" y="96">r</tspan><tspan x="128.36" y="96" xml:space="preserve">ass land?  </tspan></text>
    <text class="cls-26" transform="translate(594.34 759.22)"><tspan class="cls-27">T</tspan><tspan x="13.06" y="0">he Colours of Shib</tspan><tspan class="cls-28" x="189.08" y="0">u</tspan><tspan class="cls-29" x="201.62" y="0">y</tspan><tspan class="cls-30" x="213.16" y="0">a</tspan><tspan x="223.68" y="0" xml:space="preserve"> C</tspan><tspan class="cls-27" x="242.44" y="0">r</tspan><tspan x="251.5" y="0">ossing</tspan><tspan x="0" y="24"> </tspan></text>
    <text class="cls-26" transform="translate(1515.34 821.22)"><tspan class="cls-31">P</tspan><tspan x="12.48" y="0">ape</tspan><tspan class="cls-32" x="46.48" y="0">r</tspan><tspan x="55.54" y="0">cut E</tspan><tspan class="cls-33" x="104.52" y="0">ff</tspan><tspan x="117.9" y="0">ect</tspan></text>
    <text class="cls-26" transform="translate(1260.34 1313.22)">Conjuring</text>
    <text class="cls-26" transform="translate(708.34 1957.22)"><tspan class="cls-28">V</tspan><tspan x="14.2" y="0">ines</tspan></text>
    <text class="cls-34" transform="translate(708.34 2345.15)"><tspan xml:space="preserve"> A fun pl</tspan><tspan class="cls-22" x="71.24" y="0">a</tspan><tspan x="81.81" y="0">y of light and </tspan><tspan x="0" y="24">shadow </tspan><tspan class="cls-17" x="74.07" y="24">t</tspan><tspan x="80.3" y="24">o fa</tspan><tspan class="cls-17" x="113.7" y="24">k</tspan><tspan x="123.3" y="24">e the 3D </tspan><tspan x="0" y="48">ef</tspan><tspan class="cls-35" x="16.95" y="48">f</tspan><tspan x="23.34" y="48">ect on pho</tspan><tspan class="cls-17" x="115.58" y="48">t</tspan><tspan x="121.81" y="48">oshop. </tspan><tspan x="0" y="72"> </tspan><tspan x="0" y="96"> </tspan></text>
    <text class="cls-36" transform="translate(708.34 2316.22)">Balloon Dog</text>
    <text class="cls-34" transform="translate(1277.34 3843.15)">A pl<tspan class="cls-22" x="32.92" y="0">a</tspan><tspan class="cls-25" x="43.49" y="0">y</tspan><tspan x="53.12" y="0">ful combination of elements that highlight </tspan><tspan x="0" y="24">the </tspan><tspan class="cls-16" x="32.6" y="24">r</tspan><tspan x="39.14" y="24">ef</tspan><tspan class="cls-16" x="56.09" y="24">r</tspan><tspan x="62.64" y="24">eshing and </tspan><tspan class="cls-22" x="163.17" y="24">y</tspan><tspan x="172.53" y="24">outhful natu</tspan><tspan class="cls-16" x="278.18" y="24">r</tspan><tspan x="284.73" y="24">e of the </tspan><tspan x="0" y="48">b</tspan><tspan class="cls-16" x="11.08" y="48">r</tspan><tspan class="cls-18" x="17.63" y="48">ev</tspan><tspan x="37.32" y="48">e</tspan><tspan class="cls-14" x="47.66" y="48">r</tspan><tspan x="53.99" y="48">age. </tspan><tspan x="0" y="72"> </tspan><tspan x="0" y="96"> </tspan></text>
    <text class="cls-36" transform="translate(1277.34 3814.22)">Summe<tspan class="cls-37" x="74.52" y="0">r</tspan><tspan x="83.24" y="0" xml:space="preserve"> Smoothie Splash</tspan></text>
    <text class="cls-13" transform="translate(245.34 3848.15)">Inspi<tspan class="cls-16" x="42" y="0">r</tspan><tspan x="48.54" y="0">ed </tspan><tspan class="cls-19" x="74.85" y="0">b</tspan><tspan x="85.83" y="0">y my f</tspan><tspan class="cls-22" x="138.91" y="0">av</tspan><tspan x="158.95" y="0">ourite childhood anime, an</tspan><tspan x="0" y="24">opposition of envi</tspan><tspan class="cls-17" x="155.24" y="24">r</tspan><tspan x="161.78" y="24">onments that po</tspan><tspan class="cls-20" x="306.11" y="24">r</tspan><tspan x="313.33" y="24">t</tspan><tspan class="cls-14" x="319.76" y="24">r</tspan><tspan class="cls-22" x="326.09" y="24">a</tspan><tspan x="336.66" y="24">y the</tspan><tspan x="0" y="48">eternal stri</tspan><tspan class="cls-35" x="92.63" y="48">f</tspan><tspan x="99.01" y="48">e of these legenda</tspan><tspan class="cls-24" x="259" y="48">r</tspan><tspan x="265.91" y="48">y bi</tspan><tspan class="cls-16" x="295.84" y="48">r</tspan><tspan x="302.38" y="48" xml:space="preserve">ds.  </tspan><tspan x="0" y="72"> </tspan><tspan x="0" y="96"> </tspan></text>
    <text class="cls-26" transform="translate(245.34 3819.22)"><tspan class="cls-38">P</tspan><tspan x="12.42" y="0">o</tspan><tspan class="cls-39" x="24.06" y="0">k</tspan><tspan x="35.56" y="0">emon</tspan><tspan class="cls-40" x="90.68" y="0"> </tspan><tspan class="cls-41" x="95.26" y="0">T</tspan><tspan x="107.5" y="0">errarium</tspan></text>
    <text class="cls-13" transform="translate(754.34 3843.15)">My cats used <tspan class="cls-17" x="121.52" y="0">t</tspan><tspan x="127.75" y="0">o li</tspan><tspan class="cls-17" x="152.78" y="0">k</tspan><tspan x="162.38" y="0">e </tspan><tspan class="cls-17" x="177.58" y="0">t</tspan><tspan x="183.81" y="0">o hide in t</tspan><tspan class="cls-16" x="268.4" y="0">r</tspan><tspan x="274.94" y="0">ees when I was </tspan><tspan class="cls-22" x="0" y="24">y</tspan><tspan x="9.36" y="24">oung.</tspan><tspan class="cls-14" x="58.4" y="24"> </tspan><tspan x="62.87" y="24">Th</tspan><tspan class="cls-18" x="85.79" y="24">e</tspan><tspan x="96" y="24">y almost seem </tspan><tspan class="cls-17" x="229.28" y="24">t</tspan><tspan x="235.51" y="24">o blend in...</tspan><tspan x="0" y="48"> </tspan><tspan x="0" y="72"> </tspan></text>
    <text class="cls-26" transform="translate(754.34 3814.22)">Camouflage</text>
    <text class="cls-13" transform="translate(1030.34 4706.15)">One of my frist attempts of painting on p<tspan class="cls-17" x="353.8" y="0">r</tspan><tspan x="360.33" y="0">oc</tspan><tspan class="cls-16" x="381.84" y="0">r</tspan><tspan x="388.38" y="0">eate. It looks li</tspan><tspan class="cls-17" x="513.07" y="0">k</tspan><tspan x="522.67" y="0">e an in-between of a </tspan><tspan x="0" y="24">kitten and a squir</tspan><tspan class="cls-16" x="150.04" y="24">r</tspan><tspan x="156.58" y="24">el. </tspan><tspan x="0" y="48"> </tspan><tspan x="0" y="72"> </tspan></text>
    <text class="cls-26" transform="translate(1030.34 4677.22)"><tspan class="cls-42">P</tspan><tspan x="12.44" y="0">l</tspan><tspan class="cls-39" x="18.6" y="0">a</tspan><tspan x="28.92" y="0">yfulness</tspan></text>
    <text class="cls-26" transform="translate(991.34 2252.22)"><tspan class="cls-43">F</tspan><tspan x="12.14" y="0">ood </tspan><tspan class="cls-44" x="52.9" y="0">R</tspan><tspan class="cls-45" x="66.78" y="0">v</tspan><tspan x="78.28" y="0">etouching</tspan></text>
    <text class="cls-26" transform="translate(245.34 2680.22)"><tspan class="cls-46">W</tspan><tspan x="19.56" y="0">ate</tspan><tspan class="cls-27" x="48" y="0">r</tspan><tspan x="57.06" y="0">colours</tspan></text>
    <text class="cls-26" transform="translate(1274.34 1755.22)"><tspan class="cls-27">T</tspan><tspan x="13.06" y="0">he Chi</tspan><tspan class="cls-39" x="74.7" y="0">k</tspan><tspan x="86.2" y="0">orit</tspan><tspan class="cls-30" x="120.06" y="0">a</tspan><tspan x="130.58" y="0"> </tspan><tspan class="cls-47" x="135.66" y="0">F</tspan><tspan class="cls-48" x="148" y="0">ami</tspan><tspan class="cls-31" x="184.48" y="0">l</tspan><tspan class="cls-49" x="190.5" y="0">y</tspan></text>
    <text class="cls-34" transform="translate(246.34 1347.15)">My b<tspan class="cls-22" x="42.75" y="0">o</tspan><tspan class="cls-25" x="53.81" y="0">y</tspan><tspan x="63.44" y="0">friend and I watched our first pe</tspan><tspan class="cls-50" x="340.67" y="0">r</tspan><tspan x="347.55" y="0">formance of</tspan><tspan class="cls-14" x="454.84" y="0"> </tspan><tspan x="459.32" y="0">The Book of </tspan><tspan x="0" y="24">Mormon at the London </tspan><tspan class="cls-51" x="205.5" y="24">W</tspan><tspan x="223.13" y="24">est End. It was a spectacle </tspan><tspan class="cls-17" x="459.92" y="24">t</tspan><tspan x="466.15" y="24">o behold. </tspan><tspan x="0" y="48"> </tspan></text>
    <text class="cls-36" transform="translate(245.34 1318.22)"><tspan class="cls-27">T</tspan><tspan x="13.06" y="0">heat</tspan><tspan class="cls-32" x="54.38" y="0">r</tspan><tspan x="63.44" y="0">e Lights</tspan></text>
    <text class="cls-34" transform="translate(252.18 4710.15)">A father cat talking <tspan class="cls-17" x="169.16" y="0">t</tspan><tspan x="175.39" y="0">o his daughter as th</tspan><tspan class="cls-18" x="348.24" y="0">e</tspan><tspan x="358.45" y="0">y sail under the stars. Done in the </tspan><tspan x="0" y="24">style of a ca</tspan><tspan class="cls-16" x="105.01" y="24">r</tspan><tspan x="111.55" y="24">dboa</tspan><tspan class="cls-16" x="155.66" y="24">r</tspan><tspan x="162.21" y="24">d cu</tspan><tspan class="cls-17" x="199.47" y="24">t</tspan><tspan x="205.7" y="24">out. </tspan><tspan x="0" y="48"> </tspan></text>
    <text class="cls-36" transform="translate(250.34 4677.22)">Boat Ride</text>
    <text class="cls-13" transform="translate(245.34 2717.15)">A <tspan class="cls-16" x="17.35" y="0">r</tspan><tspan x="23.9" y="0">e-interp</tspan><tspan class="cls-16" x="89.99" y="0">r</tspan><tspan x="96.53" y="0">etation of my f</tspan><tspan class="cls-22" x="223.36" y="0">av</tspan><tspan x="243.4" y="0">ourite food</tspan><tspan x="0" y="24">in wate</tspan><tspan class="cls-16" x="62.88" y="24">r</tspan><tspan x="69.42" y="24">colours.</tspan><tspan class="cls-14" x="139.23" y="24"> </tspan><tspan x="143.7" y="24">These a</tspan><tspan class="cls-16" x="212.99" y="24">r</tspan><tspan x="219.53" y="24">e some of </tspan><tspan x="0" y="48">the dishes that I l</tspan><tspan class="cls-22" x="148.69" y="48">o</tspan><tspan class="cls-18" x="159.75" y="48">v</tspan><tspan x="169.24" y="48">ed </tspan><tspan class="cls-17" x="195.55" y="48">t</tspan><tspan x="201.78" y="48">o o</tspan><tspan class="cls-16" x="229.04" y="48">r</tspan><tspan x="235.59" y="48">der at </tspan><tspan x="0" y="72">a popular Japanese-</tspan><tspan class="cls-51" x="177.73" y="72">W</tspan><tspan x="195.36" y="72">estern fusion </tspan><tspan x="0" y="96">ca</tspan><tspan class="cls-35" x="21.02" y="96">f</tspan><tspan x="27.4" y="96">e back in Singapo</tspan><tspan class="cls-16" x="181.09" y="96">r</tspan><tspan x="187.64" y="96">e. </tspan><tspan x="0" y="120"> </tspan></text>
    <text x="0.5" y="-0.41"/>  </g>
  <g id="Layer_4" data-name="Layer 4">
    <g>
      <rect class="cls-5" x="0.57" width="1920" height="232"/>
      <text class="cls-52" transform="translate(117.81 203.14)"><tspan class="cls-31">P</tspan><tspan x="25.52" y="0">assions</tspan></text>
      <text class="cls-52" transform="translate(343.1 203.14)"><tspan class="cls-53">V</tspan><tspan x="26.64" y="0">olunteering</tspan></text>
      <text class="cls-52" transform="translate(685.69 203.14)"><tspan class="cls-54">W</tspan><tspan x="40.12" y="0">o</tspan><tspan class="cls-55" x="63.88" y="0">r</tspan><tspan class="cls-56" x="82.68" y="0">k</tspan></text>
      <text class="cls-52" transform="translate(901.62 203.14)">U<tspan class="cls-57" x="31.36" y="0">X</tspan><tspan class="cls-58" x="60.44" y="0" xml:space="preserve"> P</tspan><tspan class="cls-55" x="95.68" y="0">ro</tspan><tspan x="138.08" y="0">ject</tspan></text>
      <text class="cls-52" transform="translate(1218.75 203.14)">Skills</text>
      <text class="cls-52" transform="translate(1424.81 203.14)">Contact <tspan class="cls-59" x="161.08" y="0">M</tspan><tspan class="cls-58" x="199.36" y="0">e </tspan></text>
      <g>
        <polyline class="cls-60" points="135.27 32 119.3 32 119.3 118.91 135.27 118.91"/>
        <polyline class="cls-60" points="369.6 118.91 385.57 118.91 385.57 32 369.6 32"/>
        <polyline class="cls-61" points="198.09 38.17 231.66 38.17 231.66 115.58"/>
        <polyline class="cls-60" points="287 112.36 253.45 112.36 253.45 72.69 283.76 72.69 283.76 89.5 255.12 89.5"/>
        <polygon class="cls-3" points="344.03 41.08 329.33 75.19 344.03 109.3 356.6 109.3 356.6 115.48 339.12 115.43 325.56 83.95 311.99 115.43 294.51 115.43 294.51 109.3 307.08 109.3 321.78 75.19 307.08 41.08 294.51 41.08 294.51 34.95 311.99 34.95 325.56 66.43 339.12 34.95 356.6 34.95 356.6 41.08 344.03 41.08"/>
        <path class="cls-3" d="M179.37,36.43H167.55l-19.17,79.26h6.25L161,89.47l25.14.15,6.48,26.05h6.25ZM162.68,83.34l9.62-40.62h2l10.26,40.62Z" transform="translate(0.5 -0.41)"/>
        <line class="cls-1" x1="253.27" y1="41" x2="272.86" y2="41"/>
      </g>
      <path class="cls-4" d="M1854.46,70.4h-12.83v52.47a.54.54,0,0,1-.54.54h-68.16a.54.54,0,0,1-.54-.54V70.4h-12.84a.54.54,0,0,1-.35-1l47.45-40.91a.56.56,0,0,1,.71,0l47.46,40.91A.54.54,0,0,1,1854.46,70.4Z" transform="translate(0.5 -0.41)"/>
    </g>
  </g>
</svg>
